<?xml version="1.0" encoding="iso-8859-1"?>
<!-- Generator: Adobe Illustrator 19.0.0, SVG Export Plug-In . SVG Version: 6.00 Build 0)  -->
<svg version="1.1" id="Capa_1" xmlns="http://www.w3.org/2000/svg" xmlns:xlink="http://www.w3.org/1999/xlink" x="0px" y="0px"
	 viewBox="0 0 480 480" style="enable-background:new 0 0 480 480;" xml:space="preserve">
<g>
	<g>
		<path d="M472,251.982h-12.152l9.6-24H472c4.418,0,8-3.582,8-8s-3.582-8-8-8h-8c-3.272-0.003-6.215,1.987-7.432,5.024l-16,40
			c-1.644,4.101,0.349,8.758,4.45,10.402c0.948,0.38,1.961,0.575,2.982,0.574h24c4.418,0,8-3.582,8-8S476.418,251.982,472,251.982z"
			/>
	</g>
</g>
<g>
	<g>
		<path d="M144,315.982c-17.673,0-32,14.327-32,32c0,17.673,14.327,32,32,32s32-14.327,32-32
			C176,330.308,161.673,315.982,144,315.982z M144,363.982c-8.837,0-16-7.163-16-16s7.163-16,16-16s16,7.163,16,16
			S152.837,363.982,144,363.982z"/>
	</g>
</g>
<g>
	<g>
		<path d="M280,347.982c0.175-10.284-6.28-19.515-16-22.88v-129.12c0-2.122-0.844-4.156-2.344-5.656l-14.152-14.152l-15.6-101.408
			c-0.6-3.902-3.956-6.782-7.904-6.784H80v-24c0-4.418-3.582-8-8-8H8c-4.418,0-8,3.582-8,8s3.582,8,8,8h56v232H8
			c-4.418,0-8,3.582-8,8s3.582,8,8,8h64c4.418,0,8-3.582,8-8v-208h137.168l14.96,97.216c0.258,1.681,1.046,3.237,2.248,4.44
			L248,199.294v124.688h-44.68c-13.034-32.798-50.188-48.82-82.987-35.786c-27.218,10.817-43.599,38.752-39.749,67.786H8
			c-4.418,0-8,3.582-8,8s3.582,8,8,8h76.712c13.217,32.744,50.476,48.573,83.22,35.356c16.096-6.497,28.859-19.26,35.356-35.356
			H257.6C270.399,371.508,280.409,360.782,280,347.982z M144,395.982c-26.51,0-48-21.49-48-48c0.026-26.499,21.501-47.974,48-48
			c26.51,0,48,21.49,48,48C192,374.491,170.51,395.982,144,395.982z M263.8,349.782c-0.695,3.091-3.109,5.505-6.2,6.2H208v-16h49.6
			C262.018,340.976,264.794,345.363,263.8,349.782z"/>
	</g>
</g>
<g>
	<g>
		<path d="M472,355.982h-8.72c-4.392-26.112-29.12-43.72-55.232-39.328c-20.151,3.389-35.939,19.177-39.328,39.328H352v-24
			c0-4.418-3.582-8-8-8h-16v-48.696l80.752-7.304c2.891-0.261,5.414-2.067,6.592-4.72l29.888-67.28H472c4.418,0,8-3.582,8-8
			s-3.582-8-8-8h-32c-3.162,0-6.028,1.862-7.312,4.752L402.6,252.438l-83.288,7.544c-4.148,0.358-7.327,3.837-7.312,8v56.848
			c-9.846,3.356-16.342,12.755-16,23.152c-0.679,12.497,8.838,23.206,21.328,24h51.392c4.392,26.112,29.12,43.72,55.232,39.328
			c20.151-3.389,35.939-19.177,39.328-39.328H472c4.418,0,8-3.582,8-8S476.418,355.982,472,355.982z M336,355.982h-18.64
			c-2.52,0-5.328-3.288-5.328-8c0-4.712,2.808-8,5.328-8H336V355.982z M416,395.982c-17.673,0-32-14.327-32-32
			c0-17.673,14.327-32,32-32c17.673,0,32,14.327,32,32C448,381.655,433.673,395.982,416,395.982z"/>
	</g>
</g>
<g>
	<g>
		<path d="M208,179.102l-8-72c-0.451-4.071-3.904-7.145-8-7.12h-80c-4.418,0-8,3.582-8,8v72c0,4.418,3.582,8,8,8h88
			c4.418,0.027,8.022-3.533,8.048-7.951C208.05,179.72,208.034,179.41,208,179.102z M120,171.982v-56h64.84l6.224,56H120z"/>
	</g>
</g>
<g>
	<g>
		<path d="M224,267.982c-4.418,0-8,3.582-8,8v24c0,4.418,3.582,8,8,8s8-3.582,8-8v-24C232,271.563,228.418,267.982,224,267.982z"/>
	</g>
</g>
<g>
	<g>
		<path d="M357.712,422.326l-24.024-24c-3.114-3.134-8.179-3.151-11.314-0.036c-0.28,0.278-0.539,0.576-0.774,0.892l-16.232,21.6
			L287.2,384.406c-1.974-3.953-6.779-5.557-10.731-3.583c-0.588,0.294-1.138,0.659-1.637,1.087L232,418.59v-22.608
			c0-4.418-3.582-8-8-8s-8,3.582-8,8v40c0,4.418,3.582,8,8.001,7.999c1.91,0,3.757-0.684,5.207-1.927l48.216-41.328l19.416,38.832
			c1.956,3.962,6.753,5.588,10.715,3.633c1.14-0.562,2.129-1.388,2.885-2.409l18.464-24.624l17.496,17.48
			c3.178,3.07,8.242,2.982,11.312-0.196C360.707,430.341,360.707,425.426,357.712,422.326z"/>
	</g>
</g>
<g>
	<g>
		<path d="M385.051,156.046c-2.235-0.278-4.484,0.398-6.195,1.864l-47.728,40.912l-19.712-45.992
			c-1.742-4.061-6.445-5.94-10.506-4.199c-2.295,0.984-3.999,2.984-4.606,5.407l-16,64c-1.076,4.276,1.511,8.616,5.784,9.704
			c4.286,1.073,8.63-1.53,9.704-5.816l10.24-40.96l14.648,34.168c1.741,4.061,6.445,5.941,10.505,4.199
			c0.746-0.32,1.439-0.751,2.055-1.279l40.288-34.536l-5.432,43.472c-0.547,4.383,2.562,8.379,6.944,8.928
			c0.331,0.045,0.666,0.066,1,0.064c4.043,0.011,7.459-2.996,7.96-7.008l8-64C392.546,160.589,389.435,156.592,385.051,156.046z"/>
	</g>
</g>
<g>
</g>
<g>
</g>
<g>
</g>
<g>
</g>
<g>
</g>
<g>
</g>
<g>
</g>
<g>
</g>
<g>
</g>
<g>
</g>
<g>
</g>
<g>
</g>
<g>
</g>
<g>
</g>
<g>
</g>
</svg>
