<?xml version="1.0"?>
<svg xmlns="http://www.w3.org/2000/svg" xmlns:xlink="http://www.w3.org/1999/xlink" version="1.1" id="Capa_1" x="0px" y="0px" viewBox="0 0 480.175 480.175" style="enable-background:new 0 0 480.175 480.175;" xml:space="preserve" width="512px" height="512px" class=""><g><g>
	<g>
		<path d="M88.087,280.175c-17.673,0-32,14.327-32,32c0,17.673,14.327,32,32,32s32-14.327,32-32    C120.087,294.502,105.76,280.175,88.087,280.175z M88.087,328.175c-8.837,0-16-7.163-16-16s7.163-16,16-16s16,7.163,16,16    S96.924,328.175,88.087,328.175z" data-original="#000000" class="active-path" data-old_color="#000000" fill="#5C6C75"/>
	</g>
</g><g>
	<g>
		<path d="M272.087,288.175v-16h-128c-4.418,0-8,3.582-8,8v64c0,4.418,3.582,8,8,8h128v-16h-120v-16h120v-16h-120v-16H272.087z" data-original="#000000" class="active-path" data-old_color="#000000" fill="#5C6C75"/>
	</g>
</g><g>
	<g>
		<path d="M443.134,32c-39.765-41.447-105.6-42.811-147.047-3.047c-41.447,39.765-42.811,105.6-3.047,147.047    c0.994,1.036,2.01,2.052,3.047,3.047v53.128c0,4.418,3.582,8,8,8h16v28.688l-13.656,13.656c-3.123,3.124-3.123,8.188,0,11.312    l13.656,13.656v57.376l-13.656,13.656c-3.123,3.124-3.123,8.188,0,11.312l10.344,10.344l-10.344,10.344    c-3.123,3.124-3.123,8.188,0,11.312l56,56c3.124,3.123,8.188,3.123,11.312,0l40-40c1.5-1.5,2.344-3.534,2.344-5.656v-192h16    c4.418,0,8-3.582,8-8v-53.128C481.534,139.282,482.898,73.447,443.134,32z M400.087,428.863l-32,32l-44.688-44.688l10.344-10.344    c3.123-3.124,3.123-8.188,0-11.312l-10.344-10.344l10.344-10.344c1.5-1.5,2.344-3.534,2.344-5.656v-64    c0-2.122-0.844-4.156-2.344-5.656l-10.344-10.344l10.344-10.344c1.5-1.5,2.344-3.534,2.344-5.656v-32h32v160h16v-160h16V428.863z     M424.087,224.175h-112v-32.504c34.09,22.006,77.91,22.006,112,0V224.175z M368.087,192.175c-48.577-0.057-87.943-39.423-88-88    c0-48.601,39.399-88,88-88c48.601,0,88,39.399,88,88S416.688,192.175,368.087,192.175z" data-original="#000000" class="active-path" data-old_color="#000000" fill="#5C6C75"/>
	</g>
</g><g>
	<g>
		<rect x="368.087" y="416.175" width="16" height="16" data-original="#000000" class="active-path" data-old_color="#000000" fill="#5C6C75"/>
	</g>
</g><g>
	<g>
		<path d="M368.087,32.175c-22.091,0-40,17.909-40,40c0.026,22.08,17.92,39.974,40,40c22.091,0,40-17.909,40-40    S390.179,32.175,368.087,32.175z M368.087,96.175c-13.255,0-24-10.745-24-24s10.745-24,24-24s24,10.745,24,24    S381.342,96.175,368.087,96.175z" data-original="#000000" class="active-path" data-old_color="#000000" fill="#5C6C75"/>
	</g>
</g><g>
	<g>
		<path d="M56.087,256.175h216v-16h-142.56l13.536-81.208c4.433-27.041,27.838-46.866,55.24-46.792h41.784v-16h-41.784    c-35.227-0.088-65.312,25.398-71.016,60.16l-13.976,83.84H89.599l16.536-95.08c7.265-42.187,43.888-72.991,86.696-72.92h47.256    v-16h-47.256c-50.591-0.08-93.871,36.32-102.464,86.176l-17.008,97.824h-9.272v-56c0-4.418-3.582-8-8-8h-40c-4.418,0-8,3.582-8,8    v32c0,4.418,3.582,8,8,8h32v17.136c-14.086,3.637-23.945,16.317-24,30.864v80c0.022,15.198,10.714,28.291,25.6,31.352    l3.616,14.472c2.265,9.067,9.6,15.987,18.784,17.72v56.456c0,4.418,3.582,8,8,8h96c4.418,0,8-3.582,8-8v-56h88v-16H76.583    c-3.675,0.003-6.879-2.498-7.768-6.064l-2.48-9.936h205.752v-16h-216c-8.837,0-16-7.163-16-16v-80    C40.087,263.338,47.251,256.175,56.087,256.175z M24.087,208.175v-16h24v16H24.087z M88.087,416.175h16v32h16v-32h16v16h16v-16h16    v48h-80V416.175z" data-original="#000000" class="active-path" data-old_color="#000000" fill="#5C6C75"/>
	</g>
</g><g>
	<g>
		<rect x="328.087" y="128.175" width="80" height="16" data-original="#000000" class="active-path" data-old_color="#000000" fill="#5C6C75"/>
	</g>
</g></g> </svg>
