<svg height="512" viewBox="0 0 60 46" width="512" xmlns="http://www.w3.org/2000/svg"><g id="Page-1" fill="none" fill-rule="evenodd"><g id="019---Measure" fill="rgb(0,0,0)" fill-rule="nonzero"><path id="Shape" d="m58 0h-53c-2.76005315.00330612-4.99669388 2.23994685-5 5v36c.00330612 2.7600532 2.23994685 4.9966939 5 5h53c1.1045695 0 2-.8954305 2-2v-42c0-1.1045695-.8954305-2-2-2zm-53 44c-1.65685425 0-3-1.3431458-3-3v-36c0-1.65685425 1.34314575-3 3-3h2v8c0 .5522847.44771525 1 1 1s1-.4477153 1-1v-8h2v4c0 .55228475.4477153 1 1 1s1-.44771525 1-1v-4h2v4c0 .55228475.4477153 1 1 1s1-.44771525 1-1v-4h2v14c0 .5522847.4477153 1 1 1s1-.4477153 1-1v-14h2v4c0 .55228475.4477153 1 1 1s1-.44771525 1-1v-4h2v4c0 .55228475.4477153 1 1 1s1-.44771525 1-1v-4h2v8c0 .5522847.4477153 1 1 1s1-.4477153 1-1v-8h2v4c0 .55228475.4477153 1 1 1s1-.44771525 1-1v-4h2v4c0 .55228475.4477153 1 1 1s1-.44771525 1-1v-4h2v14c0 .5522847.4477153 1 1 1s1-.4477153 1-1v-14h2v4c0 .55228475.4477153 1 1 1s1-.44771525 1-1v-4h2v4c0 .55228475.4477153 1 1 1s1-.44771525 1-1v-4h5v42z"/><path id="Shape" d="m8 39h-2c-.55228475 0-1 .4477153-1 1s.44771525 1 1 1h2c.55228475 0 1-.4477153 1-1s-.44771525-1-1-1z"/><path id="Shape" d="m36 39h-24c-.5522847 0-1 .4477153-1 1s.4477153 1 1 1h24c.5522847 0 1-.4477153 1-1s-.4477153-1-1-1z"/><path id="Shape" d="m18 31c-.5522847 0-1 .4477153-1 1s.4477153 1 1 1h4c.5522847 0 1-.4477153 1-1s-.4477153-1-1-1h-1v-10c-.0000863-.4043959-.2437275-.7689341-.6173454-.923678-.373618-.1547439-.8036603-.0692299-1.0896546.216678l-2 2c-.3789722.3923789-.3735524 1.0160848.0121814 1.4018186s1.0094397.3911536 1.4018186.0121814l.293-.293v7.586z"/><path id="Shape" d="m48 24c0-2.209139-1.790861-4-4-4s-4 1.790861-4 4c0 .5522847.4477153 1 1 1s1-.4477153 1-1c-.0033137-1.1045695.8894305-2.0026862 1.994-2.006 1.1045695-.0033137 2.0026863.8894305 2.006 1.994 0 .035-.15 3.577-5.555 7.18-.3666557.2444851-.5300428.7001723-.4022708 1.1219349s.5165789.710164.9572708.7100651h6c.5522847 0 1-.4477153 1-1s-.4477153-1-1-1h-3.065c4.011-3.6 4.065-6.841 4.065-7z"/></g></g></svg>