<svg id="icons" enable-background="new 0 0 64 64" height="512" viewBox="0 0 64 64" width="512" xmlns="http://www.w3.org/2000/svg"><g><g><path d="m16.999 17.998h-2c-1.654 0-3-1.346-3-3v-8.998c0-1.654 1.346-3 3-3h2c1.654 0 3 1.346 3 3v8.998c0 1.654-1.346 3-3 3zm-2-12.998c-.552 0-1 .448-1 1v8.998c0 .552.448 1 1 1h2c.552 0 1-.448 1-1v-8.998c0-.552-.448-1-1-1z"/></g><g><path d="m49.001 17.998h-2c-1.654 0-3-1.346-3-3v-8.998c0-1.654 1.346-3 3-3h2c1.654 0 3 1.346 3 3v8.998c0 1.654-1.346 3-3 3zm-2-12.998c-.552 0-1 .448-1 1v8.998c0 .552.448 1 1 1h2c.552 0 1-.448 1-1v-8.998c0-.552-.448-1-1-1z"/></g><g><path d="m39 15.002h-14c-.553 0-1-.447-1-1v-13.002c0-.553.447-1 1-1h14c.553 0 1 .447 1 1v13.002c0 .553-.447 1-1 1zm-13-2h12v-11.002h-12z"/></g><g><path d="m45.001 10h-6.001c-.553 0-1-.447-1-1s.447-1 1-1h6.001c.553 0 1 .447 1 1s-.447 1-1 1z"/></g><g><path d="m25 10h-6.001c-.553 0-1-.447-1-1s.447-1 1-1h6.001c.553 0 1 .447 1 1s-.447 1-1 1z"/></g><g><path d="m45.001 13.002h-6.001c-.553 0-1-.447-1-1s.447-1 1-1h6.001c.553 0 1 .447 1 1s-.447 1-1 1z"/></g><g><path d="m25 13.002h-6.001c-.553 0-1-.447-1-1s.447-1 1-1h6.001c.553 0 1 .447 1 1s-.447 1-1 1z"/></g><g><path d="m16.999 56.994h-2c-1.654 0-3-1.346-3-3v-8.998c0-1.654 1.346-3 3-3h2c1.654 0 3 1.346 3 3v8.998c0 1.654-1.346 3-3 3zm-2-12.998c-.552 0-1 .448-1 1v8.998c0 .552.448 1 1 1h2c.552 0 1-.448 1-1v-8.998c0-.552-.448-1-1-1z"/></g><g><path d="m49.001 56.994h-2c-1.654 0-3-1.346-3-3v-8.998c0-1.654 1.346-3 3-3h2c1.654 0 3 1.346 3 3v8.998c0 1.654-1.346 3-3 3zm-2-12.998c-.552 0-1 .448-1 1v8.998c0 .552.448 1 1 1h2c.552 0 1-.448 1-1v-8.998c0-.552-.448-1-1-1z"/></g><g><path d="m45.001 48.996h-2.998c-.553 0-1-.447-1-1s.447-1 1-1h2.998c.553 0 1 .447 1 1s-.447 1-1 1z"/></g><g><path d="m21.997 48.996h-2.998c-.553 0-1-.447-1-1s.447-1 1-1h2.998c.553 0 1 .447 1 1s-.447 1-1 1z"/></g><g><path d="m45.001 51.998h-2.998c-.553 0-1-.447-1-1s.447-1 1-1h2.998c.553 0 1 .447 1 1s-.447 1-1 1z"/></g><g><path d="m21.997 51.998h-2.998c-.553 0-1-.447-1-1s.447-1 1-1h2.998c.553 0 1 .447 1 1s-.447 1-1 1z"/></g><g><path d="m23.001 3c-.367 0-.72-.202-.896-.553-.247-.494-.047-1.095.447-1.342l2-1c.493-.244 1.094-.047 1.342.447.247.494.047 1.095-.447 1.342l-2 1c-.143.072-.296.106-.446.106z"/></g><g><path d="m40.999 3c-.15 0-.303-.034-.446-.105l-2-1c-.494-.247-.694-.848-.447-1.342.248-.494.849-.691 1.342-.447l2 1c.494.247.694.848.447 1.342-.176.35-.529.552-.896.552z"/></g><g><path d="m39 5h-14c-.553 0-1-.447-1-1s.447-1 1-1h14c.553 0 1 .447 1 1s-.447 1-1 1z"/></g><g><path d="m42 53.994h-20c-.553 0-1-.447-1-1v-6.998c0-.553.447-1 1-1h20c.553 0 1 .447 1 1v6.998c0 .553-.447 1-1 1zm-19-2h18v-4.998h-18z"/></g><g><path d="m34 53.994h-4c-.553 0-1-.447-1-1v-6.998c0-.553.447-1 1-1h4c.553 0 1 .447 1 1v6.998c0 .553-.447 1-1 1zm-3-2h2v-4.998h-2z"/></g><g><path d="m32 46.996c-.553 0-1-.447-1-1v-31.994c0-.553.447-1 1-1s1 .447 1 1v31.994c0 .553-.447 1-1 1z"/></g><g><path d="m29.001 47c-.552 0-1-.447-1-1l-.001-12.998c0-.552.447-1 1-1 .552 0 1 .447 1 1l.001 12.998c0 .552-.447 1-1 1z"/></g><g><path d="m41.002 62.998h-18.002c-.553 0-1-.447-1-1v-6.002c0-.553.447-1 1-1h18.002c.553 0 1 .447 1 1v6.002c0 .553-.447 1-1 1zm-17.002-2h16.002v-4.002h-16.002z"/></g><g><path d="m29.001 56.791c-.553 0-1-.447-1-1v-2.797c0-.553.447-1 1-1s1 .447 1 1v2.797c0 .553-.447 1-1 1z"/></g><g><path d="m43.999 64c-.553 0-1-.447-1-1 0-1.103-.897-2-2-2-.553 0-1-.447-1-1s.447-1 1-1c2.206 0 4 1.794 4 4 0 .553-.447 1-1 1z"/></g><g><path d="m20 64c-.553 0-1-.447-1-1 0-2.206 1.794-4 4-4 .553 0 1 .447 1 1s-.447 1-1 1c-1.103 0-2 .897-2 2 0 .553-.447 1-1 1z"/></g><g><path d="m26 62.998c-.553 0-1-.447-1-1v-6.002c0-.553.447-1 1-1s1 .447 1 1v6.002c0 .553-.447 1-1 1z"/></g><g><path d="m29.001 62.998c-.553 0-1-.447-1-1v-6.002c0-.553.447-1 1-1s1 .447 1 1v6.002c0 .553-.447 1-1 1z"/></g><g><path d="m32.002 62.998c-.553 0-1-.447-1-1v-6.002c0-.553.447-1 1-1s1 .447 1 1v6.002c0 .553-.447 1-1 1z"/></g><g><path d="m35.003 62.998c-.553 0-1-.447-1-1v-6.002c0-.553.447-1 1-1s1 .447 1 1v6.002c0 .553-.447 1-1 1z"/></g><g><path d="m38.004 62.998c-.553 0-1-.447-1-1v-6.002c0-.553.447-1 1-1s1 .447 1 1v6.002c0 .553-.447 1-1 1z"/></g><g><path d="m32 34.002h-6.001c-.553 0-1-.447-1-1v-9.002c0-.553.447-1 1-1h6.001c.553 0 1 .447 1 1v9.002c0 .553-.447 1-1 1zm-5.001-2h4.001v-7.002h-4.001z"/></g><g><path d="m29.001 25c-.553 0-1-.447-1-1v-20.01c0-.553.447-1 1-1s1 .447 1 1v20.01c0 .553-.447 1-1 1z"/></g></g></svg>