<svg height="512" viewBox="0 0 36 60" width="512" xmlns="http://www.w3.org/2000/svg"><g id="Page-1" fill="none" fill-rule="evenodd"><g id="009---Suitcase" fill="rgb(0,0,0)" fill-rule="nonzero"><path id="Shape" d="m4 54v2.5c0 1.9329966 1.56700338 3.5 3.5 3.5s3.5-1.5670034 3.5-3.5v-2.5h14v2.5c0 1.9329966 1.5670034 3.5 3.5 3.5s3.5-1.5670034 3.5-3.5v-2.5c2.209139 0 4-1.790861 4-4v-27c-.0044086-3.8641657-3.1358343-6.9955914-7-7v-5.78c.6337052-.5642399.9973386-1.37150616 1-2.22v-5c0-1.65685425-1.3431458-3-3-3h-18c-1.65685425 0-3 1.34314575-3 3v5c.0026614.84849384.36629485 1.6557601 1 2.22v5.78c-3.86416566.0044086-6.99559136 3.1358343-7 7v27c0 2.209139 1.790861 4 4 4zm5 2.5c0 .8284271-.67157288 1.5-1.5 1.5s-1.5-.6715729-1.5-1.5v-2.5h3zm21 0c0 .8284271-.6715729 1.5-1.5 1.5s-1.5-.6715729-1.5-1.5v-2.5h3zm2-4.5h-28c-1.1045695 0-2-.8954305-2-2v-2h32v2c0 1.1045695-.8954305 2-2 2zm-5-36h-2v-5h2zm-14 0v-5.78c.6337052-.5642399.9973386-1.37150616 1-2.22v-1h8v1c.0026614.84849384.3662948 1.6557601 1 2.22v5.78zm-3 8.414 2 2v5.586h-4v-5.586zm-2-21.414c0-.55228475.44771525-1 1-1h18c.5522847 0 1 .44771525 1 1v5c0 .55228475-.4477153 1-1 1h-2c-.5522847 0-1-.44771525-1-1v-2c0-.55228475-.4477153-1-1-1h-10c-.5522847 0-1 .44771525-1 1v2c0 .55228475-.4477153 1-1 1h-2c-.55228475 0-1-.44771525-1-1zm1 8h2v5h-2zm-2 7h2v4.586l-2.414 2.414c-.37641214.3741062-.58743707.8833028-.586 1.414v5.586c0 1.1045695.8954305 2 2 2h4c1.1045695 0 2-.8954305 2-2v-5.586c.0014371-.5306972-.2095879-1.0398938-.586-1.414l-2.414-2.414v-4.586h18c2.7600532.0033061 4.9966939 2.2399468 5 5v19h-21c-.5522847 0-1 .4477153-1 1s.4477153 1 1 1h21v2h-32v-2h6c.55228475 0 1-.4477153 1-1s-.44771525-1-1-1h-6v-19c.00330612-2.7600532 2.23994685-4.9966939 5-5z"/></g></g></svg>